<svg width="58" height="8" viewBox="0 0 58 8" fill="none" xmlns="http://www.w3.org/2000/svg">
<path d="M3.16548 5.64773C4.42116 5.64773 5.43821 4.63068 5.43821 3.375C5.43821 2.11932 4.42116 1.10227 3.16548 1.10227C1.9098 1.10227 0.892756 2.11932 0.892756 3.375C0.892756 4.63068 1.9098 5.64773 3.16548 5.64773ZM3.16548 5.08523C2.21946 5.08523 1.45526 4.31818 1.45526 3.375C1.45526 2.43182 2.21946 1.66477 3.16548 1.66477C4.10866 1.66477 4.87287 2.43182 4.87287 3.375C4.87287 4.32102 4.10866 5.08523 3.16548 5.08523ZM2.36151 4.39773H2.85014V3.69034H3.2706L3.62287 4.39773H4.1598L3.73935 3.58807C3.93253 3.47159 4.08026 3.2642 4.08026 2.98011C4.08026 2.52841 3.71378 2.30114 3.4098 2.30114H2.36151V4.39773ZM2.85014 3.32955V2.66193H3.25639C3.37855 2.66193 3.55185 2.73864 3.55185 2.98011C3.55185 3.21307 3.38423 3.32955 3.24787 3.32955H2.85014ZM8.59233 7H10.8224C12.1747 7 12.7855 6.3267 12.7855 5.43466C12.7855 4.53409 12.1548 4.02557 11.5781 3.99432V3.9375C12.1122 3.80114 12.5582 3.4375 12.5582 2.71023C12.5582 1.84943 11.9616 1.18182 10.723 1.18182H8.59233V7ZM9.47017 6.24716V4.38352H10.7685C11.473 4.38352 11.9134 4.83807 11.9134 5.39205C11.9134 5.88068 11.581 6.24716 10.7372 6.24716H9.47017ZM9.47017 3.69886V1.92898H10.669C11.3651 1.92898 11.6974 2.29545 11.6974 2.77841C11.6974 3.34091 11.2372 3.69886 10.6463 3.69886H9.47017ZM15.0284 7.09659C15.75 7.09659 16.1562 6.73011 16.3182 6.40341H16.3523V7H17.1818V4.10227C17.1818 2.83239 16.1818 2.57955 15.4886 2.57955C14.6989 2.57955 13.9716 2.89773 13.6875 3.69318L14.4858 3.875C14.6108 3.56534 14.929 3.26705 15.5 3.26705C16.0483 3.26705 16.3295 3.55398 16.3295 4.0483V4.06818C16.3295 4.37784 16.0114 4.37216 15.2273 4.46307C14.4006 4.55966 13.554 4.77557 13.554 5.76705C13.554 6.625 14.1989 7.09659 15.0284 7.09659ZM15.2131 6.41477C14.733 6.41477 14.3864 6.19886 14.3864 5.77841C14.3864 5.32386 14.7898 5.16193 15.2812 5.09659C15.5568 5.05966 16.2102 4.9858 16.3324 4.86364V5.42614C16.3324 5.94318 15.9205 6.41477 15.2131 6.41477ZM20.3501 2.63636H19.4553V1.59091H18.6058V2.63636H17.9666V3.31818H18.6058V5.89489C18.603 6.6875 19.2081 7.07102 19.8786 7.05682C20.1484 7.05398 20.3303 7.00284 20.4297 6.96591L20.2763 6.2642C20.2195 6.27557 20.1143 6.30114 19.978 6.30114C19.7024 6.30114 19.4553 6.21023 19.4553 5.71875V3.31818H20.3501V2.63636ZM22.5597 7.09659C23.2812 7.09659 23.6875 6.73011 23.8494 6.40341H23.8835V7H24.7131V4.10227C24.7131 2.83239 23.7131 2.57955 23.0199 2.57955C22.2301 2.57955 21.5028 2.89773 21.2188 3.69318L22.017 3.875C22.142 3.56534 22.4602 3.26705 23.0312 3.26705C23.5795 3.26705 23.8608 3.55398 23.8608 4.0483V4.06818C23.8608 4.37784 23.5426 4.37216 22.7585 4.46307C21.9318 4.55966 21.0852 4.77557 21.0852 5.76705C21.0852 6.625 21.7301 7.09659 22.5597 7.09659ZM22.7443 6.41477C22.2642 6.41477 21.9176 6.19886 21.9176 5.77841C21.9176 5.32386 22.321 5.16193 22.8125 5.09659C23.0881 5.05966 23.7415 4.9858 23.8636 4.86364V5.42614C23.8636 5.94318 23.4517 6.41477 22.7443 6.41477ZM25.9126 7H26.7422V6.32102H26.8132C26.9666 6.59943 27.2791 7.08523 28.0746 7.08523C29.1314 7.08523 29.8984 6.23864 29.8984 4.8267C29.8984 3.41193 29.12 2.57955 28.0661 2.57955C27.2564 2.57955 26.9638 3.07386 26.8132 3.34375H26.7621V1.18182H25.9126V7ZM26.745 4.81818C26.745 3.90625 27.1428 3.30114 27.8842 3.30114C28.6541 3.30114 29.0405 3.9517 29.0405 4.81818C29.0405 5.69318 28.6428 6.3608 27.8842 6.3608C27.1541 6.3608 26.745 5.7358 26.745 4.81818ZM30.8523 7H31.7017V2.63636H30.8523V7ZM31.2812 1.96307C31.5739 1.96307 31.8182 1.7358 31.8182 1.45739C31.8182 1.17898 31.5739 0.948864 31.2812 0.948864C30.9858 0.948864 30.7443 1.17898 30.7443 1.45739C30.7443 1.7358 30.9858 1.96307 31.2812 1.96307ZM34.8814 2.63636H33.9865V1.59091H33.1371V2.63636H32.4979V3.31818H33.1371V5.89489C33.1342 6.6875 33.7393 7.07102 34.4098 7.05682C34.6797 7.05398 34.8615 7.00284 34.9609 6.96591L34.8075 6.2642C34.7507 6.27557 34.6456 6.30114 34.5092 6.30114C34.2337 6.30114 33.9865 6.21023 33.9865 5.71875V3.31818H34.8814V2.63636ZM37.9268 7H41.7564V6.24716H39.1371V6.20455L40.2933 4.99432C41.3587 3.91761 41.6626 3.40341 41.6626 2.75284C41.6626 1.81818 40.9013 1.10227 39.8047 1.10227C38.7166 1.10227 37.9212 1.80682 37.9212 2.86932H38.7592C38.7564 2.24432 39.1598 1.83523 39.7876 1.83523C40.3786 1.83523 40.8274 2.19886 40.8274 2.77841C40.8274 3.29261 40.5206 3.66193 39.8956 4.32386L37.9268 6.36364V7ZM44.8587 7.09659C46.2024 7.09659 46.9893 6 46.9893 4.09375C46.9893 2.2017 46.1911 1.10227 44.8587 1.10227C43.5234 1.10227 42.728 2.19886 42.7251 4.09375C42.7251 5.99716 43.5121 7.09375 44.8587 7.09659ZM44.8587 6.33807C44.0717 6.33807 43.5973 5.5483 43.5973 4.09375C43.6001 2.64489 44.0746 1.84659 44.8587 1.84659C45.6399 1.84659 46.1172 2.64489 46.1172 4.09375C46.1172 5.5483 45.6428 6.33807 44.8587 6.33807ZM47.9972 7H51.8267V6.24716H49.2074V6.20455L50.3636 4.99432C51.429 3.91761 51.733 3.40341 51.733 2.75284C51.733 1.81818 50.9716 1.10227 49.875 1.10227C48.7869 1.10227 47.9915 1.80682 47.9915 2.86932H48.8295C48.8267 2.24432 49.2301 1.83523 49.858 1.83523C50.4489 1.83523 50.8977 2.19886 50.8977 2.77841C50.8977 3.29261 50.5909 3.66193 49.9659 4.32386L47.9972 6.36364V7ZM54.929 7.09659C56.2727 7.09659 57.0597 6 57.0597 4.09375C57.0597 2.2017 56.2614 1.10227 54.929 1.10227C53.5938 1.10227 52.7983 2.19886 52.7955 4.09375C52.7955 5.99716 53.5824 7.09375 54.929 7.09659ZM54.929 6.33807C54.142 6.33807 53.6676 5.5483 53.6676 4.09375C53.6705 2.64489 54.1449 1.84659 54.929 1.84659C55.7102 1.84659 56.1875 2.64489 56.1875 4.09375C56.1875 5.5483 55.7131 6.33807 54.929 6.33807Z" fill="#FFE9D5"/>
</svg>
